{"title":"The Heat 2013 V2 SDTV XviD Mp3-KingStoner","uid":8800971,"size":1839650168,"categoryP":"video","categoryS":"movies","magnet":"?xt=urn:btih:7992d476a4e35ddf9ebe332ba361325f5035d3d7&amp;dn=The+Heat+2013+V2+SDTV+XviD+Mp3-KingStoner&amp;tr=udp%3A%2F%2Ftracker.openbittorrent.com%3A80&amp;tr=udp%3A%2F%2Fopen.demonii.com%3A1337&amp;tr=udp%3A%2F%2Ftracker.coppersurfer.tk%3A6969&amp;tr=udp%3A%2F%2Fexodus.desync.com%3A6969","seeders":0,"leechers":1,"uploader":"TeX","files":11,"time":1376200020,"description":"[img]http://lookpic.com/O/i2/470/dFCagD5Y.jpeg[/img]\n &lt;a href=&quot;\nhttp://www.imdb.com/title/tt2404463/&quot; rel=&quot;nofollow&quot; target=&quot;_NEW&quot;&gt;\nhttp://www.imdb.com/title/tt2404463/&lt;/a&gt;\nRatings: 7.1/10 from 19,871 users Metascore: 60/100 \nReviews: 164 user | 178 critic | 37 from Metacritic.com\nGenres: Action | Comedy | Crime\nGeneral\nComplete name : C:The Heat 2013 V2 SDTV XviD Mp3-KingStonerThe Heat 2013 V2 SDTV XviD Mp3-KingStoner.avi\nFormat: AVI\nFormat/Info: Audio Video Interleave\nFormat profile : OpenDML\nFile size : 1.71 GiB\nDuration : 1h 52mn\nOverall bit rate: 2 188 Kbps\nWriting application : MEncoder SVN-r33883(20110719-gcc4.5.2)\nWriting library: MPlayer\n\nVideo\n ID : 0\nFormat: MPEG-4 Visual\nFormat profile: Advanced Simple@L5\nFormat settings, BVOP: 2\nFormat settings, QPel : No\nFormat settings, GMC : No warppoints\nFormat settings, Matrix : Default (H.263)\nCodec ID: XVID\nCodec ID/Hint: XviD\nDuration : 1h 52mn\nBit rate : 2 046 Kbps\nWidth : 1 280 pixels\nHeight : 720 pixels\nDisplay aspect ratio : 16:9\nFrame rate : 30.000 fps\nColor space: YUV\nChroma subsampling : 4:2:0\nBit depth : 8 bits\nScan type : Progressive\nCompression mode : Lossy\nBits/(Pixel*Frame): 0.074\nStream size : 1.60 GiB (94%)\nWriting library : XviD 1.2.1 (UTC 2008-12-04)\n\nAudio\nID: 1\nFormat: MPEG Audio\nFormat version : Version 1\nFormat profile : Layer 3\nMode : Joint stereo\nCodec ID : 55\nCodec ID/Hint : MP3\nDuration : 1h 52mn\nBit rate mode : Constant\nBit rate: 128 Kbps\nChannel(s) : 2 channels\nSampling rate: 44.1 KHz\nCompression mode : Lossy\nDelay relative to video: 33ms\nStream size : 103 MiB (6%)\nAlignment : Aligned on interleaves\nInterleave, duration : 26 ms (0.78 video frame)\nInterleave, preload duration : 522 ms\nWriting library : LAME\n\n\n\n[img]http://lookpic.com/O/i2/117/WnlZPaXI.jpeg\n[img]http://lookpic.com/O/i2/956/REUPeWoT.jpeg\n[img]http://lookpic.com/O/i2/1683/VEgda33L.jpeg","torrent":{"xt":"urn:btih:7992d476a4e35ddf9ebe332ba361325f5035d3d7","amp;dn":"The+Heat+2013+V2+SDTV+XviD+Mp3-KingStoner","amp;tr":["udp%3A%2F%2Ftracker.openbittorrent.com%3A80","udp%3A%2F%2Fopen.demonii.com%3A1337","udp%3A%2F%2Ftracker.coppersurfer.tk%3A6969","udp%3A%2F%2Fexodus.desync.com%3A6969"],"infoHash":"7992d476a4e35ddf9ebe332ba361325f5035d3d7","infoHashBuffer":{"type":"Buffer","data":[121,146,212,118,164,227,93,223,158,190,51,43,163,97,50,95,80,53,211,215]},"announce":[],"urlList":[]}}